<svg width="1024" height="1024" version="1.1" xmlns="http://www.w3.org/2000/svg" desc="Created with imagetracer.js version 1.2.6" ><path fill="rgb(0,0,0)" stroke="rgb(0,0,0)" stroke-width="1" opacity="0.09803921568627451" d="M 113.5 216 L 114 217.5 L 112.5 220 L 112 218.5 L 113.5 216 Z " /><path fill="rgb(0,0,0)" stroke="rgb(0,0,0)" stroke-width="1" opacity="0.09803921568627451" d="M 911.5 217 L 918 233.5 L 924 258.5 L 926 279.5 L 927 280.5 L 928 317.5 L 929 318.5 L 929 725.5 L 928 726.5 L 928 751.5 L 927 752.5 L 927 763.5 L 926 764.5 L 925 779.5 L 922 795.5 L 915 819.5 Q 899.9 858.4 872.5 885 Q 850 907 819.5 921 L 785.5 932 L 762.5 936 L 754.5 936 L 753.5 937 L 716.5 938 L 715.5 939 L 309.5 939 L 308.5 938 L 283.5 938 L 282.5 937 L 271.5 937 L 270.5 936 L 255.5 935 L 227.5 929 L 212.5 924 Q 171.2 907.3 144 876.5 Q 123.5 854 111 823.5 L 102 793.5 L 99 776.5 L 99 769.5 L 98 768.5 L 97 742.5 L 96 741.5 L 96 639.5 L 95 638.5 L 95 350.5 L 96 349.5 L 96 302.5 L 97 301.5 L 98 275.5 L 103 246.5 L 111.5 221 L 112 223.5 L 107 238.5 L 103 260.5 L 102 281.5 L 101 282.5 L 101 303.5 L 100 304.5 L 100 718.5 L 101 719.5 L 101 741.5 L 102 742.5 L 103 763.5 L 107 785.5 L 113 806.5 Q 129.2 849.3 160.5 877 Q 182.2 896.8 211.5 909 L 236.5 917 L 265.5 922 L 274.5 922 L 275.5 923 L 290.5 923 L 291.5 924 L 733.5 924 L 734.5 923 L 749.5 923 L 750.5 922 L 759.5 922 L 760.5 921 L 773.5 920 L 810.5 910 Q 846.8 895.3 872 869.5 Q 894.2 846.7 908 815.5 L 918 783.5 L 921 760.5 L 922 759.5 L 922 750.5 L 923 749.5 L 923 734.5 L 924 733.5 L 924 290.5 L 923 289.5 L 923 274.5 L 922 273.5 L 922 264.5 L 921 263.5 L 920 250.5 L 911.5 217 Z " /><path fill="rgb(247,248,252)" stroke="rgb(247,248,252)" stroke-width="1" opacity="0.9921568627450981" d="M 298.5 100 L 469 100.5 L 299.5 101 L 298.5 102 L 268.5 103 L 267.5 104 L 247.5 106 Q 182.2 120.2 146 163.5 L 124 195.5 Q 113.8 214.3 108.5 238 L 108 234.5 Q 122.8 180.3 159.5 148 Q 182.6 126.6 214.5 114 L 247.5 105 L 252.5 105 L 259.5 103 L 267.5 103 L 268.5 102 L 297.5 101 L 298.5 100 Z " /><path fill="rgb(247,248,252)" stroke="rgb(247,248,252)" stroke-width="1" opacity="0.9921568627450981" d="M 554.5 100 L 725.5 100 L 726.5 101 L 756.5 102 L 757.5 103 L 777.5 105 L 807.5 113 L 831.5 124 L 850.5 136 L 871 153 L 888 173.5 L 899 190.5 L 911 216.5 L 917 239.5 L 916 239.5 L 910 216.5 L 900 194.5 Q 885.9 169.1 865.5 150 Q 848 133.5 825.5 122 L 797.5 111 L 771.5 105 L 757.5 104 L 756.5 103 L 746.5 103 L 745.5 102 L 726.5 102 L 725.5 101 L 554.5 101 L 554.5 100 Z " /><path fill="rgb(247,248,252)" stroke="rgb(247,248,252)" stroke-width="1" opacity="0.9921568627450981" d="M 107.5 239 L 108 242.5 L 105.5 253 L 105 248.5 L 107.5 239 Z " /><path fill="rgb(247,248,252)" stroke="rgb(247,248,252)" stroke-width="1" opacity="0.9921568627450981" d="M 917.5 241 L 918 244.5 L 917 244.5 L 917.5 241 Z " /><path fill="rgb(247,248,252)" stroke="rgb(247,248,252)" stroke-width="1" opacity="0.9921568627450981" d="M 918.5 246 L 919 249.5 L 918 249.5 L 918.5 246 Z " /><path fill="rgb(247,248,252)" stroke="rgb(247,248,252)" stroke-width="1" opacity="0.9921568627450981" d="M 919.5 251 L 920 256.5 L 919 256.5 L 919.5 251 Z " /><path fill="rgb(247,248,252)" stroke="rgb(247,248,252)" stroke-width="1" opacity="0.9921568627450981" d="M 104.5 254 L 105 259.5 L 104 259.5 L 104.5 254 Z " /><path fill="rgb(247,248,252)" stroke="rgb(247,248,252)" stroke-width="1" opacity="0.9921568627450981" d="M 920.5 258 L 921 263.5 L 920 263.5 L 920.5 258 Z " /><path fill="rgb(247,248,252)" stroke="rgb(247,248,252)" stroke-width="1" opacity="0.9921568627450981" d="M 103.5 261 L 104 268.5 L 103 268.5 L 103.5 261 Z " /><path fill="rgb(247,248,252)" stroke="rgb(247,248,252)" stroke-width="1" opacity="0.9921568627450981" d="M 646.5 262 L 662.5 262 L 663.5 263 L 687.5 264 L 712.5 269 L 727.5 274 Q 760.4 286.1 781 310.5 Q 795.7 327.3 803 351.5 L 807 369.5 L 808 400.5 L 807 401.5 L 807 412.5 L 806 413.5 L 805 424.5 L 797 455.5 L 786 483.5 L 776 503.5 Q 738.4 570.4 683.5 620 L 653.5 646 L 650 647 L 650 545.5 Q 691.5 505.5 720 452.5 Q 729.8 433.3 736 410.5 L 739 395.5 L 740 373.5 L 739 372.5 L 739 362.5 L 734 345.5 L 728 334.5 L 720 324 L 703.5 312 L 682.5 303 L 655.5 298 L 619.5 298 L 618.5 299 L 604.5 300 L 592.5 303 L 587.5 303 L 548.5 314 Q 507.2 328.7 471.5 349 Q 392.7 393.2 334 457.5 L 300 500.5 Q 286.4 520.4 276 543.5 L 269 561.5 L 264 580.5 L 263 593.5 L 262 594.5 L 262 617.5 L 266 633.5 L 274 646 L 286.5 654 L 299.5 657 L 310.5 657 L 334.5 651 L 358.5 638 Q 389 616.5 414 589.5 Q 458.5 542 498 489.5 Q 545.6 427.1 588.5 360 L 589 689.5 L 560.5 707 L 527.5 723 L 470.5 744 L 439.5 752 L 434.5 752 L 429.5 754 L 417.5 755 L 410.5 757 L 400.5 757 L 399.5 758 L 389.5 758 L 388.5 759 L 356.5 759 L 355.5 758 L 337.5 757 Q 331 754 321.5 754 L 291.5 744 Q 264.8 732.2 247 711.5 Q 231.7 693.8 224 668.5 L 219 639.5 L 219 618.5 L 220 617.5 L 222 595.5 L 229 567.5 Q 237.9 541.4 250 518.5 Q 285.2 456.2 335.5 409 Q 397.5 349 478.5 308 L 511.5 293 L 556.5 277 L 604.5 266 L 611.5 266 L 628.5 263 L 645.5 263 L 646.5 262 Z " /><path fill="rgb(247,248,252)" stroke="rgb(247,248,252)" stroke-width="1" opacity="0.9921568627450981" d="M 921.5 265 L 922 273.5 L 921 273.5 L 921.5 265 Z " /><path fill="rgb(247,248,252)" stroke="rgb(247,248,252)" stroke-width="1" opacity="0.9921568627450981" d="M 102.5 270 L 103 279.5 L 102 279.5 L 102.5 270 Z " /><path fill="rgb(247,248,252)" stroke="rgb(247,248,252)" stroke-width="1" opacity="0.9921568627450981" d="M 922.5 275 L 923 287.5 L 922 287.5 L 922.5 275 Z " /><path fill="rgb(247,248,252)" stroke="rgb(247,248,252)" stroke-width="1" opacity="0.9921568627450981" d="M 101.5 283 L 102 300.5 L 101 300.5 L 101.5 283 Z " /><path fill="rgb(247,248,252)" stroke="rgb(247,248,252)" stroke-width="1" opacity="0.9921568627450981" d="M 923.5 292 L 924 353.5 L 923 353.5 L 923.5 292 Z " /><path fill="rgb(247,248,252)" stroke="rgb(247,248,252)" stroke-width="1" opacity="0.9921568627450981" d="M 100.5 313 L 101 358.5 L 100 358.5 L 100.5 313 Z " /><path fill="rgb(247,248,252)" stroke="rgb(247,248,252)" stroke-width="1" opacity="0.9921568627450981" d="M 100.5 555 L 101 710.5 L 100 710.5 L 100.5 555 Z " /><path fill="rgb(247,248,252)" stroke="rgb(247,248,252)" stroke-width="1" opacity="0.9921568627450981" d="M 923.5 668 L 924 730.5 L 923 730.5 L 923.5 668 Z " /><path fill="rgb(247,248,252)" stroke="rgb(247,248,252)" stroke-width="1" opacity="0.9921568627450981" d="M 101.5 723 L 102 739.5 L 101 739.5 L 101.5 723 Z " /><path fill="rgb(247,248,252)" stroke="rgb(247,248,252)" stroke-width="1" opacity="0.9921568627450981" d="M 922.5 736 L 923 747.5 L 922 747.5 L 922.5 736 Z " /><path fill="rgb(247,248,252)" stroke="rgb(247,248,252)" stroke-width="1" opacity="0.9921568627450981" d="M 102.5 744 L 103 752.5 L 102 752.5 L 102.5 744 Z " /><path fill="rgb(247,248,252)" stroke="rgb(247,248,252)" stroke-width="1" opacity="0.9921568627450981" d="M 921.5 751 L 922 757.5 L 921 757.5 L 921.5 751 Z " /><path fill="rgb(247,248,252)" stroke="rgb(247,248,252)" stroke-width="1" opacity="0.9921568627450981" d="M 103.5 755 L 104 762.5 L 103 762.5 L 103.5 755 Z " /><path fill="rgb(247,248,252)" stroke="rgb(247,248,252)" stroke-width="1" opacity="0.9921568627450981" d="M 920.5 760 L 921 765.5 L 920 765.5 L 920.5 760 Z " /><path fill="rgb(247,248,252)" stroke="rgb(247,248,252)" stroke-width="1" opacity="0.9921568627450981" d="M 104.5 764 L 105 768.5 L 104 768.5 L 104.5 764 Z " /><path fill="rgb(247,248,252)" stroke="rgb(247,248,252)" stroke-width="1" opacity="0.9921568627450981" d="M 919.5 767 L 920 772.5 L 919 772.5 L 919.5 767 Z " /><path fill="rgb(247,248,252)" stroke="rgb(247,248,252)" stroke-width="1" opacity="0.9921568627450981" d="M 105.5 771 L 106 775.5 L 105 775.5 L 105.5 771 Z " /><path fill="rgb(247,248,252)" stroke="rgb(247,248,252)" stroke-width="1" opacity="0.9921568627450981" d="M 918.5 774 L 919 777.5 L 918 777.5 L 918.5 774 Z " /><path fill="rgb(247,248,252)" stroke="rgb(247,248,252)" stroke-width="1" opacity="0.9921568627450981" d="M 106.5 777 L 107 779.5 L 106 779.5 L 106.5 777 Z " /><path fill="rgb(247,248,252)" stroke="rgb(247,248,252)" stroke-width="1" opacity="0.9921568627450981" d="M 917.5 779 L 918 782.5 L 917 782.5 L 917.5 779 Z " /><path fill="rgb(247,248,252)" stroke="rgb(247,248,252)" stroke-width="1" opacity="0.9921568627450981" d="M 107.5 781 L 108 784.5 L 107 784.5 L 107.5 781 Z " /><path fill="rgb(247,248,252)" stroke="rgb(247,248,252)" stroke-width="1" opacity="0.9921568627450981" d="M 916.5 784 L 917 786.5 L 916 786.5 L 916.5 784 Z " /><path fill="rgb(247,248,252)" stroke="rgb(247,248,252)" stroke-width="1" opacity="0.9921568627450981" d="M 108.5 786 L 109 788.5 L 108 788.5 L 108.5 786 Z " /><path fill="rgb(247,248,252)" stroke="rgb(247,248,252)" stroke-width="1" opacity="0.9921568627450981" d="M 915.5 788 L 916 790.5 L 915 790.5 L 915.5 788 Z " /><path fill="rgb(247,248,252)" stroke="rgb(247,248,252)" stroke-width="1" opacity="0.9921568627450981" d="M 109.5 790 L 110 792.5 L 109 792.5 L 109.5 790 Z " /><path fill="rgb(247,248,252)" stroke="rgb(247,248,252)" stroke-width="1" opacity="0.9921568627450981" d="M 914.5 792 L 915 794.5 L 913.5 798 L 913 795.5 L 914.5 792 Z " /><path fill="rgb(247,248,252)" stroke="rgb(247,248,252)" stroke-width="1" opacity="0.9921568627450981" d="M 111.5 797 L 112 799.5 L 111 799.5 L 111.5 797 Z " /><path fill="rgb(247,248,252)" stroke="rgb(247,248,252)" stroke-width="1" opacity="0.9921568627450981" d="M 912.5 799 L 913 801.5 L 910.5 807 L 910 805.5 L 912.5 799 Z " /><path fill="rgb(247,248,252)" stroke="rgb(247,248,252)" stroke-width="1" opacity="0.9921568627450981" d="M 113.5 804 L 116 810.5 L 115 810.5 L 113.5 804 Z " /><path fill="rgb(247,248,252)" stroke="rgb(247,248,252)" stroke-width="1" opacity="0.9921568627450981" d="M 908.5 811 L 909 812.5 L 906.5 817 L 906 815.5 L 908.5 811 Z " /><path fill="rgb(247,248,252)" stroke="rgb(247,248,252)" stroke-width="1" opacity="0.9921568627450981" d="M 116.5 812 L 118 815.5 L 117 815.5 L 116.5 812 Z " /><path fill="rgb(247,248,252)" stroke="rgb(247,248,252)" stroke-width="1" opacity="0.9921568627450981" d="M 905.5 818 L 906 819.5 L 899.5 831 L 900 829.5 L 905.5 818 Z " /><path fill="rgb(247,248,252)" stroke="rgb(247,248,252)" stroke-width="1" opacity="0.9921568627450981" d="M 119.5 819 L 125 829.5 L 123 828.5 L 119 820.5 L 119.5 819 Z " /><path fill="rgb(247,248,252)" stroke="rgb(247,248,252)" stroke-width="1" opacity="0.9921568627450981" d="M 125.5 831 Q 132.9 846.1 144 857.5 L 140 854.5 L 128 837.5 L 125.5 831 Z " /><path fill="rgb(247,248,252)" stroke="rgb(247,248,252)" stroke-width="1" opacity="0.9921568627450981" d="M 898.5 832 L 898 833.5 L 895.5 838 L 896 836.5 L 898.5 832 Z " /><path fill="rgb(247,248,252)" stroke="rgb(247,248,252)" stroke-width="1" opacity="0.9921568627450981" d="M 894.5 839 L 894 840.5 L 891.5 844 L 893 841.5 L 894.5 839 Z " /><path fill="rgb(247,248,252)" stroke="rgb(247,248,252)" stroke-width="1" opacity="0.9921568627450981" d="M 890.5 845 L 889.5 847 L 890.5 845 Z " /><path fill="rgb(247,248,252)" stroke="rgb(247,248,252)" stroke-width="1" opacity="0.9921568627450981" d="M 888.5 848 L 887 850.5 Q 876.4 866.9 861.5 879 L 856.5 883 L 860.5 878 L 878 861.5 L 888.5 848 Z " /><path fill="rgb(247,248,252)" stroke="rgb(247,248,252)" stroke-width="1" opacity="0.9921568627450981" d="M 144.5 859 L 155.5 871 Q 170.4 885.6 189 896.5 L 187.5 896 Q 167.9 885.1 153 869.5 L 144.5 859 Z " /><path fill="rgb(247,248,252)" stroke="rgb(247,248,252)" stroke-width="1" opacity="0.9921568627450981" d="M 854.5 883 L 851.5 887 L 848.5 889 L 850.5 886 L 854.5 883 Z " /><path fill="rgb(247,248,252)" stroke="rgb(247,248,252)" stroke-width="1" opacity="0.9921568627450981" d="M 846.5 889 L 845.5 891 L 846.5 889 Z " /><path fill="rgb(247,248,252)" stroke="rgb(247,248,252)" stroke-width="1" opacity="0.9921568627450981" d="M 843.5 891 L 842.5 893 L 843.5 891 Z " /><path fill="rgb(247,248,252)" stroke="rgb(247,248,252)" stroke-width="1" opacity="0.9921568627450981" d="M 840.5 893 L 839.5 895 L 840.5 893 Z " /><path fill="rgb(247,248,252)" stroke="rgb(247,248,252)" stroke-width="1" opacity="0.9921568627450981" d="M 837.5 895 L 836.5 897 L 832.5 899 L 833.5 897 L 837.5 895 Z " /><path fill="rgb(247,248,252)" stroke="rgb(247,248,252)" stroke-width="1" opacity="0.9921568627450981" d="M 192.5 898 L 198 901.5 L 196.5 901 Q 192.5 900.5 192.5 898 Z " /><path fill="rgb(247,248,252)" stroke="rgb(247,248,252)" stroke-width="1" opacity="0.9921568627450981" d="M 830.5 899 L 829.5 901 L 818.5 906 L 818.5 905 L 830.5 899 Z " /><path fill="rgb(247,248,252)" stroke="rgb(247,248,252)" stroke-width="1" opacity="0.9921568627450981" d="M 201.5 903 L 209 906.5 L 207.5 907 L 201.5 904 L 201.5 903 Z " /><path fill="rgb(247,248,252)" stroke="rgb(247,248,252)" stroke-width="1" opacity="0.9921568627450981" d="M 210.5 907 L 214 908.5 L 212.5 909 L 210.5 907 Z " /><path fill="rgb(247,248,252)" stroke="rgb(247,248,252)" stroke-width="1" opacity="0.9921568627450981" d="M 813.5 907 L 815 907.5 L 811.5 909 L 811.5 908 L 813.5 907 Z " /><path fill="rgb(247,248,252)" stroke="rgb(247,248,252)" stroke-width="1" opacity="0.9921568627450981" d="M 215.5 909 L 222 911.5 L 220.5 912 L 215.5 910 L 215.5 909 Z " /><path fill="rgb(247,248,252)" stroke="rgb(247,248,252)" stroke-width="1" opacity="0.9921568627450981" d="M 802.5 911 L 804 911.5 L 799.5 913 L 799.5 912 L 802.5 911 Z " /><path fill="rgb(247,248,252)" stroke="rgb(247,248,252)" stroke-width="1" opacity="0.9921568627450981" d="M 223.5 912 L 226 912.5 L 223.5 913 L 223.5 912 Z " /><path fill="rgb(247,248,252)" stroke="rgb(247,248,252)" stroke-width="1" opacity="0.9921568627450981" d="M 230.5 914 L 233 914.5 L 230.5 915 L 230.5 914 Z " /><path fill="rgb(247,248,252)" stroke="rgb(247,248,252)" stroke-width="1" opacity="0.9921568627450981" d="M 792.5 914 L 795 914.5 L 792.5 915 L 792.5 914 Z " /><path fill="rgb(247,248,252)" stroke="rgb(247,248,252)" stroke-width="1" opacity="0.9921568627450981" d="M 238.5 916 L 241 916.5 L 238.5 917 L 238.5 916 Z " /><path fill="rgb(247,248,252)" stroke="rgb(247,248,252)" stroke-width="1" opacity="0.9921568627450981" d="M 784.5 916 L 787 916.5 L 784.5 917 L 784.5 916 Z " /><path fill="rgb(247,248,252)" stroke="rgb(247,248,252)" stroke-width="1" opacity="0.9921568627450981" d="M 242.5 917 L 246 917.5 L 242.5 918 L 242.5 917 Z " /><path fill="rgb(247,248,252)" stroke="rgb(247,248,252)" stroke-width="1" opacity="0.9921568627450981" d="M 779.5 917 L 782 917.5 L 779.5 918 L 779.5 917 Z " /><path fill="rgb(247,248,252)" stroke="rgb(247,248,252)" stroke-width="1" opacity="0.9921568627450981" d="M 247.5 918 L 251 918.5 L 247.5 919 L 247.5 918 Z " /><path fill="rgb(247,248,252)" stroke="rgb(247,248,252)" stroke-width="1" opacity="0.9921568627450981" d="M 774.5 918 L 778 918.5 L 774.5 919 L 774.5 918 Z " /><path fill="rgb(247,248,252)" stroke="rgb(247,248,252)" stroke-width="1" opacity="0.9921568627450981" d="M 253.5 919 L 257 919.5 L 253.5 920 L 253.5 919 Z " /><path fill="rgb(247,248,252)" stroke="rgb(247,248,252)" stroke-width="1" opacity="0.9921568627450981" d="M 768.5 919 L 772 919.5 L 768.5 920 L 768.5 919 Z " /><path fill="rgb(247,248,252)" stroke="rgb(247,248,252)" stroke-width="1" opacity="0.9921568627450981" d="M 259.5 920 L 264 920.5 L 259.5 921 L 259.5 920 Z " /><path fill="rgb(247,248,252)" stroke="rgb(247,248,252)" stroke-width="1" opacity="0.9921568627450981" d="M 761.5 920 L 765 920.5 L 761.5 921 L 761.5 920 Z " /><path fill="rgb(247,248,252)" stroke="rgb(247,248,252)" stroke-width="1" opacity="0.9921568627450981" d="M 268.5 921 L 274 921.5 L 268.5 922 L 268.5 921 Z " /><path fill="rgb(247,248,252)" stroke="rgb(247,248,252)" stroke-width="1" opacity="0.9921568627450981" d="M 751.5 921 L 757 921.5 L 751.5 922 L 751.5 921 Z " /><path fill="rgb(247,248,252)" stroke="rgb(247,248,252)" stroke-width="1" opacity="0.9921568627450981" d="M 279.5 922 L 289 922.5 L 279.5 923 L 279.5 922 Z " /><path fill="rgb(247,248,252)" stroke="rgb(247,248,252)" stroke-width="1" opacity="0.9921568627450981" d="M 736.5 922 L 746 922.5 L 736.5 923 L 736.5 922 Z " /><path fill="rgb(247,248,252)" stroke="rgb(247,248,252)" stroke-width="1" opacity="0.9921568627450981" d="M 298.5 923 L 355 923.5 L 298.5 924 L 298.5 923 Z " /><path fill="rgb(247,248,252)" stroke="rgb(247,248,252)" stroke-width="1" opacity="0.9921568627450981" d="M 670.5 923 L 727 923.5 L 670.5 924 L 670.5 923 Z " /><path fill="rgb(54,67,186)" stroke="rgb(54,67,186)" stroke-width="1" opacity="0.996078431372549" d="M 100.5 304 L 101 312.5 L 100 312.5 L 100.5 304 Z " /><path fill="rgb(54,67,186)" stroke="rgb(54,67,186)" stroke-width="1" opacity="0.996078431372549" d="M 100.5 711 L 101 718.5 L 100 718.5 L 100.5 711 Z " /><path fill="rgb(54,67,186)" stroke="rgb(54,67,186)" stroke-width="1" opacity="0.996078431372549" d="M 923.5 731 L 924 733.5 L 923 733.5 L 923.5 731 Z " /><path fill="rgb(54,67,186)" stroke="rgb(54,67,186)" stroke-width="1" opacity="0.996078431372549" d="M 138.5 852 L 139.5 854 L 138.5 852 Z " /><path fill="rgb(54,67,186)" stroke="rgb(54,67,186)" stroke-width="1" opacity="0.996078431372549" d="M 884.5 854 L 883.5 856 L 884.5 854 Z " /><path fill="rgb(54,67,186)" stroke="rgb(54,67,186)" stroke-width="1" opacity="0.996078431372549" d="M 142.5 857 L 143.5 859 L 142.5 857 Z " /><path fill="rgb(54,67,186)" stroke="rgb(54,67,186)" stroke-width="1" opacity="0.996078431372549" d="M 880.5 859 L 879.5 861 L 880.5 859 Z " /><path fill="rgb(54,67,186)" stroke="rgb(54,67,186)" stroke-width="1" opacity="0.996078431372549" d="M 148.5 864 L 152.5 869 L 148.5 864 Z " /><path fill="rgb(54,67,186)" stroke="rgb(54,67,186)" stroke-width="1" opacity="0.996078431372549" d="M 871.5 869 L 869.5 872 L 871.5 869 Z " /><path fill="rgb(54,67,186)" stroke="rgb(54,67,186)" stroke-width="1" opacity="0.996078431372549" d="M 156.5 872 L 160.5 877 L 156.5 872 Z " /><path fill="rgb(54,67,186)" stroke="rgb(54,67,186)" stroke-width="1" opacity="0.996078431372549" d="M 860.5 879 L 859.5 881 L 860.5 879 Z " /><path fill="rgb(54,67,186)" stroke="rgb(54,67,186)" stroke-width="1" opacity="0.996078431372549" d="M 855.5 883 L 854.5 885 L 855.5 883 Z " /><path fill="rgb(54,67,186)" stroke="rgb(54,67,186)" stroke-width="1" opacity="0.996078431372549" d="M 265.5 921 L 268 921.5 L 265.5 922 L 265.5 921 Z " /><path fill="rgb(54,67,186)" stroke="rgb(54,67,186)" stroke-width="1" opacity="0.996078431372549" d="M 757.5 921 L 760 921.5 L 757.5 922 L 757.5 921 Z " /><path fill="rgb(54,67,186)" stroke="rgb(54,67,186)" stroke-width="1" opacity="0.996078431372549" d="M 275.5 922 L 279 922.5 L 275.5 923 L 275.5 922 Z " /><path fill="rgb(54,67,186)" stroke="rgb(54,67,186)" stroke-width="1" opacity="0.996078431372549" d="M 746.5 922 L 750 922.5 L 746.5 923 L 746.5 922 Z " /><path fill="rgb(54,67,186)" stroke="rgb(54,67,186)" stroke-width="1" opacity="0.996078431372549" d="M 291.5 923 L 298 923.5 L 291.5 924 L 291.5 923 Z " /><path fill="rgb(54,67,186)" stroke="rgb(54,67,186)" stroke-width="1" opacity="0.996078431372549" d="M 727.5 923 L 734 923.5 L 727.5 924 L 727.5 923 Z " /><path fill="rgb(54,67,186)" stroke="rgb(54,67,186)" stroke-width="1" opacity="1" d="M 469.5 100 L 725.5 101 L 726.5 102 L 745.5 102 L 746.5 103 L 756.5 103 L 757.5 104 L 771.5 105 L 797.5 111 L 825.5 122 Q 853.5 136.5 874 158.5 Q 895.3 180.7 908 211.5 L 917 240.5 L 920 263.5 L 921 264.5 L 921 273.5 L 922 274.5 L 922 287.5 L 923 288.5 L 923 353.5 L 924 354.5 L 924 667.5 L 923 668.5 L 923 735.5 L 922 736.5 L 922 750.5 L 921 751.5 L 919 773.5 L 913 798.5 Q 897 848 861.5 878 Q 839.8 897.3 810.5 909 L 788.5 916 L 760.5 921 L 751.5 921 L 750.5 922 L 736.5 922 L 735.5 923 L 670.5 923 L 669.5 924 L 355.5 924 L 354.5 923 L 289.5 923 L 288.5 922 L 274.5 922 L 273.5 921 L 264.5 921 L 236.5 916 Q 185.7 902.3 154 869.5 Q 131.8 847.2 118 816.5 L 108 785.5 L 104 763.5 L 104 755.5 L 103 754.5 L 102 723.5 L 101 722.5 L 100 359.5 L 101 358.5 L 101 301.5 L 102 300.5 L 102 280.5 L 103 279.5 L 103 269.5 L 104 268.5 L 105 253.5 L 111 227.5 Q 127.1 176.6 163.5 146 Q 182 130 205.5 119 Q 227 109.5 253.5 105 L 267.5 104 L 268.5 103 L 278.5 103 L 279.5 102 L 298.5 102 L 299.5 101 L 468.5 101 L 469.5 100 Z M 647 262 L 646 263 L 629 263 L 612 266 L 605 266 L 557 277 L 512 293 L 479 308 Q 397 349 336 409 Q 285 456 250 519 Q 238 541 229 568 L 222 596 L 220 618 L 219 619 L 219 640 L 224 669 Q 232 694 247 712 Q 265 732 292 744 L 322 754 Q 331 754 338 757 L 356 758 L 357 759 L 389 759 L 390 758 L 400 758 L 401 757 L 411 757 L 418 755 L 430 754 L 435 752 L 440 752 L 471 744 L 528 723 L 561 707 L 589 690 L 589 360 Q 546 427 498 490 Q 459 542 414 590 Q 389 617 359 638 L 335 651 L 311 657 L 300 657 L 287 654 L 274 646 L 266 634 L 262 618 L 262 595 L 263 594 L 264 581 L 269 562 L 276 544 Q 286 520 300 501 L 334 458 Q 393 393 472 349 Q 507 329 549 314 L 588 303 L 593 303 L 605 300 L 619 299 L 620 298 L 656 298 L 683 303 L 704 312 L 720 324 L 728 335 L 734 346 L 739 363 L 739 373 L 740 374 L 739 396 L 736 411 Q 730 433 720 453 Q 691 505 650 546 L 650 647 L 654 646 L 684 620 Q 738 570 776 504 L 786 484 L 797 456 L 805 425 L 806 414 L 807 413 L 807 402 L 808 401 L 807 370 L 803 352 Q 796 327 781 311 Q 760 286 728 274 L 713 269 L 688 264 L 664 263 L 663 262 L 647 262 Z " /><path fill="rgb(0,0,0)" stroke="rgb(0,0,0)" stroke-width="1" opacity="0" d="M 0 0 L 1024 0 L 1024 1024 L 0 1024 L 0 0 Z M 299 100 L 298 101 L 269 102 L 268 103 L 260 103 L 253 105 L 248 105 L 215 114 Q 183 127 160 148 Q 142 164 129 185 Q 115 207 106 236 L 101 256 L 99 275 L 98 276 L 97 302 L 96 303 L 96 350 L 95 351 L 95 639 L 96 640 L 96 742 L 97 743 L 98 769 L 99 770 L 99 777 L 102 794 L 111 824 Q 124 854 144 877 Q 171 907 213 924 L 228 929 L 256 935 L 271 936 L 272 937 L 283 937 L 284 938 L 309 938 L 310 939 L 716 939 L 717 938 L 754 937 L 755 936 L 763 936 L 786 932 L 820 921 Q 850 907 873 885 Q 900 858 915 820 L 922 796 L 925 780 L 926 765 L 927 764 L 927 753 L 928 752 L 928 727 L 929 726 L 929 319 L 928 318 L 927 281 L 926 280 L 924 259 L 920 241 L 910 213 Q 896 179 872 155 Q 849 131 818 117 L 802 111 L 783 106 L 766 104 L 765 103 L 758 103 L 757 102 L 727 101 L 726 100 L 299 100 Z " /></svg>